<svg width="39" height="39" viewBox="0 0 39 39" fill="none" xmlns="http://www.w3.org/2000/svg">
<path d="M28.2037 2.00012H10.6111C5.75306 2.00012 1.81482 5.93836 1.81482 10.7964V28.389C1.81482 33.2471 5.75306 37.1853 10.6111 37.1853H28.2037C33.0618 37.1853 37 33.2471 37 28.389V10.7964C37 5.93836 33.0618 2.00012 28.2037 2.00012Z" stroke="#EEECEC" stroke-width="3.51852" stroke-linecap="round" stroke-linejoin="round"/>
<path d="M29.0833 9.91675H29.1009M26.4444 18.4843C26.6616 19.9485 26.4115 21.4438 25.7298 22.7576C25.048 24.0714 23.9694 25.1368 22.6473 25.8023C21.3252 26.4677 19.8269 26.6994 18.3655 26.4642C16.9042 26.2291 15.5542 25.5391 14.5076 24.4925C13.461 23.4459 12.771 22.0959 12.5359 20.6345C12.3007 19.1732 12.5323 17.6749 13.1978 16.3528C13.8632 15.0307 14.9287 13.952 16.2425 13.2703C17.5563 12.5886 19.0516 12.3385 20.5157 12.5556C22.0092 12.7771 23.3919 13.473 24.4595 14.5406C25.527 15.6082 26.223 16.9909 26.4444 18.4843Z" stroke="#EEECEC" stroke-width="3.51852" stroke-linecap="round" stroke-linejoin="round"/>
</svg>
