<svg width="50" height="50" viewBox="0 0 50 50" fill="none" xmlns="http://www.w3.org/2000/svg">
<circle cx="25" cy="25" r="24" stroke="#D9411E" stroke-width="2"/>
<g clip-path="url(#clip0_55_1255)">
<path d="M35.713 17.077C35.4317 16.7394 35.0796 16.468 34.6815 16.2818C34.2835 16.0957 33.8494 15.9995 33.41 16H17.242L17.2 15.649C17.114 14.9194 16.7634 14.2467 16.2145 13.7585C15.6656 13.2702 14.9566 13.0003 14.222 13H14C13.7348 13 13.4804 13.1054 13.2929 13.2929C13.1054 13.4804 13 13.7348 13 14C13 14.2652 13.1054 14.5196 13.2929 14.7071C13.4804 14.8946 13.7348 15 14 15H14.222C14.4669 15 14.7033 15.09 14.8864 15.2527C15.0694 15.4155 15.1863 15.6397 15.215 15.883L16.591 27.583C16.7339 28.7998 17.3185 29.9218 18.2339 30.736C19.1493 31.5502 20.3319 32 21.557 32H32C32.2652 32 32.5196 31.8946 32.7071 31.7071C32.8946 31.5196 33 31.2652 33 31C33 30.7348 32.8946 30.4804 32.7071 30.2929C32.5196 30.1054 32.2652 30 32 30H21.557C20.9381 29.9983 20.3348 29.8051 19.8299 29.4471C19.3251 29.089 18.9433 28.5835 18.737 28H30.657C31.8293 28.0001 32.9643 27.5882 33.8638 26.8364C34.7633 26.0846 35.37 25.0407 35.578 23.887L36.363 19.533C36.4414 19.101 36.4237 18.6571 36.3114 18.2326C36.1991 17.8082 35.9948 17.4137 35.713 17.077ZM34.4 19.178L33.614 23.532C33.4891 24.225 33.1245 24.852 32.5839 25.3032C32.0433 25.7544 31.3612 26.0011 30.657 26H18.419L17.478 18H33.41C33.5569 17.9991 33.7022 18.0306 33.8355 18.0923C33.9689 18.1539 34.087 18.2441 34.1815 18.3566C34.276 18.4691 34.3446 18.601 34.3824 18.7429C34.4201 18.8849 34.4262 19.0334 34.4 19.178Z" fill="#D9411E"/>
<path d="M20.0001 37.0005C21.1047 37.0005 22.0001 36.1051 22.0001 35.0005C22.0001 33.8959 21.1047 33.0005 20.0001 33.0005C18.8956 33.0005 18.0001 33.8959 18.0001 35.0005C18.0001 36.1051 18.8956 37.0005 20.0001 37.0005Z" fill="#D9411E"/>
<path d="M30 37.0005C31.1046 37.0005 32 36.1051 32 35.0005C32 33.8959 31.1046 33.0005 30 33.0005C28.8954 33.0005 28 33.8959 28 35.0005C28 36.1051 28.8954 37.0005 30 37.0005Z" fill="#D9411E"/>
</g>
<ellipse cx="32.5" cy="33" rx="5.5" ry="5" fill="#D9411E"/>
<path d="M32.5 28.5C35.3073 28.5 37.5 30.5585 37.5 33C37.5 35.4415 35.3073 37.5 32.5 37.5C29.6927 37.5 27.5 35.4415 27.5 33C27.5 30.5585 29.6927 28.5 32.5 28.5Z" stroke="black" stroke-opacity="0.5"/>
<defs>
<clipPath id="clip0_55_1255">
<rect width="24" height="24" fill="white" transform="translate(13 13)"/>
</clipPath>
</defs>
</svg>
